<?xml version="1.0" encoding="UTF-8"?>
<svg width="100px" height="100px" viewBox="0 0 100 100" version="1.1" xmlns="http://www.w3.org/2000/svg" xmlns:xlink="http://www.w3.org/1999/xlink">
    <!-- Generator: Sketch 44 (41411) - http://www.bohemiancoding.com/sketch -->
    <title>icons/circle/custom-software</title>
    <desc>Created with Sketch.</desc>
    <defs></defs>
    <g id="Symbols" stroke="none" stroke-width="1" fill="none" fill-rule="evenodd">
        <g id="services/interior" transform="translate(-142.000000, -48.000000)">
            <g id="custom-software" transform="translate(42.000000, 48.000000)">
                <g id="icons/circle/custom-software" transform="translate(100.000000, 0.000000)">
                    <circle id="Oval-2" fill="#4A888D" cx="50" cy="50" r="50"></circle>
                    <path d="M0.312740588,28.7970166 C9.33941979,19.9023164 21.7312651,14.4133873 35.4051186,14.4133873 C63.019356,14.4133873 85.4051186,36.7991499 85.4051186,64.4133873 C85.4051186,78.1880508 79.8349572,90.6617334 70.8242072,99.7048624 L0.312740588,28.7970166 Z" id="Combined-Shape" fill-opacity="0.25" fill="#000000" style="mix-blend-mode: multiply;" transform="translate(42.858930, 57.059125) rotate(-180.000000) translate(-42.858930, -57.059125) "></path>
                    <path d="M74.3157895,26 L26.3157895,26 C22.832,26 20,28.832 20,32.3157895 L20,38.6315789 L80.6315789,38.6315789 L80.6315789,32.3157895 C80.6315789,28.832 77.7970526,26 74.3157895,26 Z M30.1052632,36.1052632 C28.7107368,36.1052632 27.5789474,34.9734737 27.5789474,33.5789474 C27.5789474,32.1844211 28.7107368,31.0526316 30.1052632,31.0526316 C31.4972632,31.0526316 32.6315789,32.1844211 32.6315789,33.5789474 C32.6315789,34.9734737 31.4972632,36.1052632 30.1052632,36.1052632 Z M37.6842105,36.1052632 C36.2896842,36.1052632 35.1578947,34.9734737 35.1578947,33.5789474 C35.1578947,32.1844211 36.2896842,31.0526316 37.6842105,31.0526316 C39.0762105,31.0526316 40.2105263,32.1844211 40.2105263,33.5789474 C40.2105263,34.9734737 39.0762105,36.1052632 37.6842105,36.1052632 Z M45.2631579,36.1052632 C43.8686316,36.1052632 42.7368421,34.9734737 42.7368421,33.5789474 C42.7368421,32.1844211 43.8686316,31.0526316 45.2631579,31.0526316 C46.6551579,31.0526316 47.7894737,32.1844211 47.7894737,33.5789474 C47.7894737,34.9734737 46.6551579,36.1052632 45.2631579,36.1052632 Z M20,67.6842105 C20,71.168 22.832,74 26.3157895,74 L74.3157895,74 C77.7970526,74 80.6315789,71.168 80.6315789,67.6842105 L80.6315789,41.1578947 L20,41.1578947 L20,67.6842105 Z" id="window" fill="#FFFFFF"></path>
                </g>
            </g>
        </g>
    </g>
</svg>