<?xml version="1.0" encoding="UTF-8"?>
<svg width="24px" height="31px" viewBox="0 0 24 31" version="1.1" xmlns="http://www.w3.org/2000/svg" xmlns:xlink="http://www.w3.org/1999/xlink">
    <!-- Generator: Sketch 44 (41411) - http://www.bohemiancoding.com/sketch -->
    <title>doc</title>
    <desc>Created with Sketch.</desc>
    <defs></defs>
    <g id="Contact" stroke="none" stroke-width="1" fill="none" fill-rule="evenodd">
        <g id="Client-Support" transform="translate(-58.000000, -1729.000000)">
            <g id="helpful-links" transform="translate(42.000000, 1548.000000)">
                <g id="doc" transform="translate(16.000000, 181.000000)">
                    <g id="Capa_1">
                        <g>
                            <g id="Group">
                                <path d="M16.9034237,0 L1.07088658,0 C0.630093734,0 0.27276785,0.357325884 0.27276785,1.05070176 L0.27276785,30.0044635 C0.27276785,30.1926734 0.630093734,30.5499992 1.07088658,30.5499992 L22.9326842,30.5499992 C23.3734771,30.5499992 23.730803,30.1926734 23.730803,30.0044635 L23.730803,7.07996232 C23.730803,6.70026948 23.6800682,6.57806948 23.5906003,6.48805609 L17.2427469,0.140202675 C17.1527335,0.0507348202 17.0305335,0 16.9034237,0 L16.9034237,0 Z" id="Shape" fill="#E9E9E0"></path>
                                <polygon id="Shape" fill="#D9D7CA" points="17.1843746 0.0823758908 17.1843746 6.54642841 23.6484271 6.54642841"></polygon>
                                <path d="M6.81919626,7.09196411 L3.54598205,7.09196411 C3.24484635,7.09196411 3.00044635,6.84756411 3.00044635,6.54642841 C3.00044635,6.2452927 3.24484635,6.00089271 3.54598205,6.00089271 L6.81919626,6.00089271 C7.12033197,6.00089271 7.36473196,6.2452927 7.36473196,6.54642841 C7.36473196,6.84756411 7.12033197,7.09196411 6.81919626,7.09196411 L6.81919626,7.09196411 Z" id="Shape" fill="#8697CB"></path>
                                <path d="M8.45580336,9.81964261 L3.54598205,9.81964261 C3.24484635,9.81964261 3.00044635,9.57524262 3.00044635,9.27410691 C3.00044635,8.9729712 3.24484635,8.72857121 3.54598205,8.72857121 L8.45580336,8.72857121 C8.75693907,8.72857121 9.00133906,8.9729712 9.00133906,9.27410691 C9.00133906,9.57524262 8.75693907,9.81964261 8.45580336,9.81964261 L8.45580336,9.81964261 Z" id="Shape" fill="#8697CB"></path>
                                <path d="M10.6379462,9.81964261 C10.4961069,9.81964261 10.3542676,9.75963368 10.2506158,9.66143726 C10.1524194,9.55778548 10.0924105,9.41594619 10.0924105,9.27410691 C10.0924105,9.13226763 10.1524194,8.99042835 10.2506158,8.88677656 C10.452464,8.68492835 10.8234283,8.68492835 11.0252765,8.88677656 C11.1234729,8.99042835 11.1834819,9.13226763 11.1834819,9.27410691 C11.1834819,9.41594619 11.1234729,9.55778548 11.0252765,9.66143726 C10.9216247,9.75963368 10.7797854,9.81964261 10.6379462,9.81964261 L10.6379462,9.81964261 Z" id="Shape" fill="#8697CB"></path>
                                <path d="M17.1843746,9.81964261 L12.820089,9.81964261 C12.5189533,9.81964261 12.2745533,9.57524262 12.2745533,9.27410691 C12.2745533,8.9729712 12.5189533,8.72857121 12.820089,8.72857121 L17.1843746,8.72857121 C17.4855103,8.72857121 17.7299103,8.9729712 17.7299103,9.27410691 C17.7299103,9.57524262 17.4855103,9.81964261 17.1843746,9.81964261 L17.1843746,9.81964261 Z" id="Shape" fill="#8697CB"></path>
                                <path d="M3.54598205,18.0026781 C3.40414277,18.0026781 3.26230349,17.9426692 3.15865171,17.8444728 C3.06045528,17.740821 3.00044635,17.5989817 3.00044635,17.4571424 C3.00044635,17.3153031 3.06045528,17.1734639 3.15865171,17.0698121 C3.36049992,16.8679639 3.73146419,16.8679639 3.9333124,17.0698121 C4.03150883,17.1734639 4.09151775,17.3098478 4.09151775,17.4571424 C4.09151775,17.5989817 4.03150883,17.740821 3.9333124,17.8444728 C3.82966062,17.9426692 3.68782134,18.0026781 3.54598205,18.0026781 L3.54598205,18.0026781 Z" id="Shape" fill="#8697CB"></path>
                                <path d="M10.0924105,18.0026781 L5.72812486,18.0026781 C5.42698915,18.0026781 5.18258916,17.7582781 5.18258916,17.4571424 C5.18258916,17.1560067 5.42698915,16.9116067 5.72812486,16.9116067 L10.0924105,16.9116067 C10.3935462,16.9116067 10.6379462,17.1560067 10.6379462,17.4571424 C10.6379462,17.7582781 10.3935462,18.0026781 10.0924105,18.0026781 L10.0924105,18.0026781 Z" id="Shape" fill="#8697CB"></path>
                                <path d="M20.4575888,9.81964261 L19.3665174,9.81964261 C19.0653817,9.81964261 18.8209817,9.57524262 18.8209817,9.27410691 C18.8209817,8.9729712 19.0653817,8.72857121 19.3665174,8.72857121 L20.4575888,8.72857121 C20.7587245,8.72857121 21.0031245,8.9729712 21.0031245,9.27410691 C21.0031245,9.57524262 20.7587245,9.81964261 20.4575888,9.81964261 L20.4575888,9.81964261 Z" id="Shape" fill="#8697CB"></path>
                                <path d="M15.5477675,12.5473211 L3.54598205,12.5473211 C3.24484635,12.5473211 3.00044635,12.3029211 3.00044635,12.0017854 C3.00044635,11.7006497 3.24484635,11.4562497 3.54598205,11.4562497 L15.5477675,11.4562497 C15.8489032,11.4562497 16.0933032,11.7006497 16.0933032,12.0017854 C16.0933032,12.3029211 15.8489032,12.5473211 15.5477675,12.5473211 L15.5477675,12.5473211 Z" id="Shape" fill="#8697CB"></path>
                                <path d="M20.4575888,12.5473211 L17.1843746,12.5473211 C16.8832389,12.5473211 16.6388389,12.3029211 16.6388389,12.0017854 C16.6388389,11.7006497 16.8832389,11.4562497 17.1843746,11.4562497 L20.4575888,11.4562497 C20.7587245,11.4562497 21.0031245,11.7006497 21.0031245,12.0017854 C21.0031245,12.3029211 20.7587245,12.5473211 20.4575888,12.5473211 L20.4575888,12.5473211 Z" id="Shape" fill="#8697CB"></path>
                                <path d="M5.72812486,15.2749996 L3.54598205,15.2749996 C3.24484635,15.2749996 3.00044635,15.0305996 3.00044635,14.7294639 C3.00044635,14.4283282 3.24484635,14.1839282 3.54598205,14.1839282 L5.72812486,14.1839282 C6.02926056,14.1839282 6.27366056,14.4283282 6.27366056,14.7294639 C6.27366056,15.0305996 6.02926056,15.2749996 5.72812486,15.2749996 L5.72812486,15.2749996 Z" id="Shape" fill="#8697CB"></path>
                                <path d="M13.3656247,15.2749996 L7.91026766,15.2749996 C7.60913195,15.2749996 7.36473196,15.0305996 7.36473196,14.7294639 C7.36473196,14.4283282 7.60913195,14.1839282 7.91026766,14.1839282 L13.3656247,14.1839282 C13.6667604,14.1839282 13.9111604,14.4283282 13.9111604,14.7294639 C13.9111604,15.0305996 13.6667604,15.2749996 13.3656247,15.2749996 L13.3656247,15.2749996 Z" id="Shape" fill="#8697CB"></path>
                                <path d="M20.4575888,15.2749996 L15.5477675,15.2749996 C15.2466318,15.2749996 15.0022318,15.0305996 15.0022318,14.7294639 C15.0022318,14.4283282 15.2466318,14.1839282 15.5477675,14.1839282 L20.4575888,14.1839282 C20.7587245,14.1839282 21.0031245,14.4283282 21.0031245,14.7294639 C21.0031245,15.0305996 20.7587245,15.2749996 20.4575888,15.2749996 L20.4575888,15.2749996 Z" id="Shape" fill="#8697CB"></path>
                                <path d="M22.9326842,30.5499992 L1.07088658,30.5499992 C0.630093734,30.5499992 0.27276785,30.1926734 0.27276785,29.7518805 L0.27276785,21.2758923 L23.730803,21.2758923 L23.730803,29.7518805 C23.730803,30.1926734 23.3734771,30.5499992 22.9326842,30.5499992 L22.9326842,30.5499992 Z" id="Shape" fill="#0096E6"></path>
                                <g transform="translate(4.909821, 22.912499)" id="Shape" fill="#FFFFFF">
                                    <path d="M4.63705346,3.09973385 C4.63705346,3.55198295 4.58850078,3.93876776 4.49139542,4.25954275 C4.39429007,4.58031774 4.27154454,4.84872131 4.12206775,5.06529898 C3.97259097,5.28187665 3.80511151,5.45208379 3.6185383,5.57646593 C3.43196509,5.70084807 3.25193831,5.79358914 3.07791242,5.85632575 C2.90388653,5.91851682 2.74459011,5.95834092 2.60056869,5.97579807 C2.45654726,5.99216414 2.34962226,6.00089271 2.28033923,6.00089271 L0.199666066,6.00089271 L0.199666066,0.504074987 L1.85482138,0.504074987 C2.31743566,0.504074987 2.72385975,0.577722307 3.07409367,0.723925875 C3.42432759,0.870129443 3.71564366,1.06597676 3.94695079,1.30928568 C4.17825793,1.5525946 4.35064721,1.83027228 4.46520971,2.14068209 C4.57977221,2.45163744 4.63705346,2.77132136 4.63705346,3.09973385 L4.63705346,3.09973385 Z M1.9819312,5.34461326 C2.5885669,5.34461326 3.02608653,5.15094809 3.2944901,4.7630722 C3.56289366,4.37519632 3.69709544,3.81329455 3.69709544,3.07736689 C3.69709544,2.84878743 3.66981866,2.62239011 3.61526509,2.39872048 C3.56016598,2.17505084 3.45487759,1.97265709 3.29830885,1.79099371 C3.1417401,1.60933032 2.92898118,1.46258121 2.66057761,1.35074639 C2.39217405,1.23891158 2.04412227,1.1827214 1.61642228,1.1827214 L1.09434462,1.1827214 L1.09434462,5.34461326 L1.9819312,5.34461326 L1.9819312,5.34461326 Z"></path>
                                    <path d="M10.0787721,3.22629813 C10.0787721,3.68891241 10.0203997,4.09642758 9.90365511,4.44938917 C9.78691047,4.80235077 9.62488637,5.09584898 9.41867387,5.32933826 C9.21246138,5.56337308 8.9713346,5.73958111 8.69529353,5.85905343 C8.41925247,5.97852574 8.11702569,6.03798913 7.78915873,6.03798913 C7.46129178,6.03798913 7.159065,5.97852574 6.88302394,5.85905343 C6.60698287,5.73958111 6.36585609,5.56337308 6.1596436,5.32933826 C5.9534311,5.09530344 5.791407,4.80235077 5.67466236,4.44938917 C5.55791772,4.09642758 5.4995454,3.68836687 5.4995454,3.22629813 C5.4995454,2.7642294 5.55791772,2.35725976 5.67466236,2.00702584 C5.791407,1.65624639 5.95288557,1.36438479 6.1596436,1.13089551 C6.36585609,0.896860692 6.60698287,0.719561589 6.88302394,0.597361592 C7.159065,0.475161595 7.46129178,0.414607133 7.78915873,0.414607133 C8.11702569,0.414607133 8.41925247,0.475161595 8.69529353,0.597361592 C8.9713346,0.719561589 9.21246138,0.896860692 9.41867387,1.13089551 C9.62488637,1.36493032 9.78636493,1.65679192 9.90365511,2.00702584 C10.0198542,2.35725976 10.0787721,2.76368386 10.0787721,3.22629813 L10.0787721,3.22629813 Z M7.76624623,5.30751683 C7.95009177,5.30751683 8.12520873,5.27151148 8.29214265,5.19950076 C8.45853104,5.12749005 8.60800782,5.0091088 8.73948192,4.84544809 C8.87095603,4.68124185 8.97460781,4.46630078 9.04880067,4.20007936 C9.12299352,3.93385794 9.16281763,3.60980973 9.16827299,3.22684367 C9.16336316,2.85369725 9.12463013,2.53674101 9.05261942,2.27597494 C8.9806087,2.01466334 8.88132121,1.79972228 8.75421139,1.63060621 C8.62710157,1.46149014 8.48308015,1.33983568 8.32160158,1.26509729 C8.16012301,1.1903589 7.98991587,1.15326247 7.81043463,1.15326247 C7.6265891,1.15326247 7.4509266,1.18763122 7.28453821,1.25745979 C7.11760429,1.32728836 6.96867304,1.44512407 6.83719894,1.61151246 C6.7051793,1.77844638 6.60207305,1.99284191 6.52788019,2.25688119 C6.45368734,2.52092047 6.4133177,2.84333207 6.40840788,3.22629813 C6.4133177,3.59944455 6.45205073,3.91749187 6.52406144,4.18098561 C6.59607216,4.44447935 6.69535965,4.65942042 6.82246947,4.82635434 C6.94957929,4.99328827 7.09360072,5.11439719 7.25507928,5.19186326 C7.41710339,5.2687838 7.58731052,5.30751683 7.76624623,5.30751683 L7.76624623,5.30751683 Z"></path>
                                    <path d="M15.0606041,5.44171861 C14.8565737,5.64029361 14.6252666,5.78977039 14.3672282,5.88905789 C14.1086443,5.98889092 13.8304211,6.03798913 13.5320131,6.03798913 C13.2036006,6.03798913 12.9019193,5.97852574 12.6258783,5.85905343 C12.3498372,5.73958111 12.1087104,5.56337308 11.9024979,5.32933826 C11.6962854,5.09530344 11.5342613,4.80235077 11.4175167,4.44938917 C11.300772,4.09642758 11.2423997,3.68836687 11.2423997,3.22629813 C11.2423997,2.7642294 11.300772,2.35725976 11.4175167,2.00702584 C11.5342613,1.65624639 11.6957399,1.36438479 11.9024979,1.13089551 C12.1087104,0.896860692 12.3509283,0.719561589 12.629697,0.597361592 C12.9079202,0.475161595 13.2090559,0.414607133 13.5320131,0.414607133 C13.8304211,0.414607133 14.1086443,0.464250881 14.3672282,0.563538379 C14.6258121,0.663371412 14.8565737,0.812302658 15.0606041,1.01087765 L14.4414211,1.56295978 C14.3170389,1.41839282 14.1790184,1.3141955 14.0273595,1.24982229 C13.8757005,1.18544908 13.7180407,1.15271694 13.5538345,1.15271694 C13.369989,1.15271694 13.1943265,1.18708568 13.0279381,1.25691425 C12.8610041,1.32674282 12.7120729,1.44457854 12.5805988,1.61096692 C12.4485792,1.77790085 12.3454729,1.99229638 12.2712801,2.25633566 C12.1970872,2.52037494 12.1567176,2.84278654 12.1518077,3.2257526 C12.1567176,3.59889902 12.1954506,3.91694633 12.2674613,4.18044007 C12.339472,4.44393382 12.4387595,4.65887488 12.5658693,4.82580881 C12.6929791,4.99274273 12.8370006,5.11385166 12.9984791,5.19131773 C13.1599577,5.2687838 13.3301648,5.3069713 13.5096461,5.3069713 C13.6891273,5.3069713 13.8566068,5.27423915 14.0131755,5.20986594 C14.1697443,5.14549273 14.3126746,5.04074987 14.4419666,4.89672845 L15.0606041,5.44171861 L15.0606041,5.44171861 Z"></path>
                                </g>
                            </g>
                        </g>
                    </g>
                </g>
            </g>
        </g>
    </g>
</svg>