<?xml version="1.0" encoding="UTF-8"?>
<svg width="48px" height="48px" viewBox="0 0 48 48" version="1.1" xmlns="http://www.w3.org/2000/svg" xmlns:xlink="http://www.w3.org/1999/xlink">
    <!-- Generator: Sketch 41.2 (35397) - http://www.bohemiancoding.com/sketch -->
    <title>fingerprint</title>
    <desc>Created with Sketch.</desc>
    <defs></defs>
    <g id="Icons" stroke="none" stroke-width="1" fill="none" fill-rule="evenodd">
        <g id="fingerprint" fill="#464547">
            <path d="M23.5462467,21.6531806 C23.1869185,21.7575891 22.9794574,22.1331887 23.083188,22.4931948 C23.1014934,22.5562467 24.9116935,28.9956779 24.41338,43.2982932 C24.3998205,43.6732148 24.6927068,43.9871184 25.0669504,43.999322 C25.0750861,44 25.0832219,44 25.0913576,44 C25.4547536,44 25.7550977,43.7118595 25.7679792,43.3457516 C26.2744285,28.8275394 24.4628724,22.3833624 24.3862609,22.1162393 C24.2825303,21.7562332 23.9076087,21.5514839 23.5462467,21.6531806 Z M40.5939932,15.1723928 C37.7220802,8.38583705 31.1050188,4 23.7354024,4 C21.3034968,4 18.9319312,4.47526229 16.6871474,5.41222733 C15.4437365,5.93088018 14.2688013,6.54783979 13.1948848,7.24547874 C12.8809812,7.45022797 12.7914881,7.8698961 12.9955594,8.18379973 C13.2003086,8.49770335 13.6206547,8.58719639 13.9338804,8.38312514 C14.9393211,7.72955474 16.0410347,7.15123985 17.2091901,6.66377396 C19.2885474,5.79528467 21.4838388,5.35595519 23.7354024,5.35595519 C30.5585689,5.35595519 36.6861304,9.41636299 39.3444805,15.7012153 C40.449584,18.3141409 41.0468823,23.1250699 41.3045138,25.7610468 C41.3390906,26.1115612 41.6333329,26.3725826 41.9784235,26.3725826 C42.0001188,26.3725826 42.022492,26.3712266 42.0455433,26.3691927 C42.417753,26.3325819 42.6903,26.0010509 42.6536892,25.6281632 C42.3302939,22.3155647 41.7106223,17.8117595 40.5939932,15.1723928 Z M11.1853592,10.5838404 C11.4524824,10.3214631 11.4545163,9.89162528 11.192139,9.62518009 C10.9297616,9.35873489 10.5006018,9.35602298 10.2334787,9.61840031 C6.58731516,13.2103256 2.9553892,19.8904388 6.35748076,31.3116493 C6.44493987,31.6065696 6.71409697,31.7964033 7.00698329,31.7964033 C7.07071318,31.7964033 7.13579903,31.7869116 7.2002069,31.7679283 C7.55885705,31.6614858 7.76360628,31.2838523 7.65648582,30.9252021 C5.11610378,22.394888 6.33578547,15.3615485 11.1853592,10.5838404 Z M24.2560892,8.07735724 C22.1814778,7.99667791 20.1624605,8.37024356 18.2539536,9.16618926 C11.6057053,11.9397956 8.07073013,19.250428 10.0321193,26.1725792 C10.2280548,26.8647943 10.4287362,27.601078 10.5365346,28.3346497 C10.7792506,29.9950169 10.7921322,33.0506619 10.7921322,37.8975237 C10.7921322,38.2724453 11.0951882,38.5755013 11.4701098,38.5755013 C11.8450314,38.5755013 12.1480874,38.2724453 12.1480874,37.8975237 C12.1480874,32.8411668 12.1352058,29.8946762 11.8782523,28.1373583 C11.7589282,27.3224292 11.5453653,26.5373311 11.3365482,25.8024034 C9.56228084,19.5406024 12.7603011,12.926253 18.7759963,10.4170579 C20.5034832,9.69636774 22.3414805,9.36890456 24.2079528,9.4312785 C29.0290515,9.60484076 34.4935509,13.8544043 36.1417144,18.7121138 C37.5681792,22.9148969 37.5803828,30.0750182 37.4034307,36.5232631 C37.393261,36.8975067 37.6888593,37.2093764 38.0631029,37.2195461 C38.4305667,37.2127663 38.7492162,36.9354735 38.7593859,36.5598739 C38.9390499,29.990949 38.9207445,22.6809946 37.4258039,18.2754962 C35.5837388,12.8469296 29.6758421,8.27125883 24.2560892,8.07735724 Z M23.7354024,12.1357311 C22.9984408,12.1357311 22.264869,12.2150545 21.5536705,12.3723453 C21.1882406,12.4530246 20.9570502,12.8143867 21.0377296,13.1804946 C21.1184089,13.5459245 21.4757031,13.772369 21.8458789,13.6964355 C22.4608045,13.56084 23.0967475,13.4916863 23.7347244,13.4916863 C27.2825812,13.4916863 30.4690759,15.6029085 31.8514722,18.8714385 C33.4989577,22.7630299 33.6067562,29.0092374 33.2264107,39.9084052 C33.2128512,40.2826489 33.5057375,40.5972305 33.8799811,40.6094341 C33.8881169,40.610112 33.8962526,40.610112 33.9043883,40.610112 C34.2677843,40.610112 34.5681284,40.3219716 34.58101,39.9558637 C34.9769489,28.6180444 34.8562689,22.4925168 33.0996289,18.342616 C31.5057036,14.5723826 27.8297091,12.1357311 23.7354024,12.1357311 Z M18.7000628,15.0761199 C19.0065087,14.861201 19.0810862,14.438143 18.8654894,14.1316971 C18.6512484,13.8252513 18.2275125,13.7499958 17.9210666,13.9662706 C14.429482,16.4178376 12.9121681,21.1277479 14.1481213,25.6918931 C14.1623588,25.7413854 15.5386533,30.7509619 15.5386533,38.5761793 C15.5386533,38.9511009 15.8417093,39.2541569 16.2166309,39.2541569 C16.5915525,39.2541569 16.8946085,38.9511009 16.8946085,38.5761793 C16.8946085,30.56723 15.5128902,25.5373142 15.4552621,25.331887 C14.3698199,21.3223275 15.6742488,17.2009017 18.7000628,15.0761199 Z M30.4541604,36.5469923 C30.4568723,36.1720707 30.1558502,35.8669808 29.7809286,35.8642689 L29.7761828,35.8642689 C29.4039731,35.8642689 29.1009171,36.164613 29.0982052,36.5375006 C29.0948153,37.0473398 29.1117647,37.7917592 29.1300701,38.5958406 C29.1565112,39.765352 29.1863423,41.0907981 29.1571892,41.943016 C29.1436297,42.3172596 29.436516,42.6311632 29.8114376,42.6433668 C29.8195733,42.6440448 29.8270311,42.6440448 29.8351668,42.6440448 C30.1985628,42.6440448 30.4989069,42.3559043 30.5117885,41.9891185 C30.5429754,41.0989339 30.5124664,39.7524704 30.4853473,38.5646536 C30.4670419,37.7768437 30.4507705,37.0466618 30.4541604,36.5469923 Z M23.7354024,16.8815743 C23.0153902,16.8815743 22.3130054,17.0225936 21.6465535,17.3005644 C19.0078647,18.4016 17.725809,21.3785996 18.663452,24.2254275 C19.1746471,25.7773183 19.6065189,33.9015238 19.6065189,41.9660672 C19.6065189,42.3409888 19.9095749,42.6440448 20.2844965,42.6440448 C20.6594181,42.6440448 20.9624741,42.3409888 20.9624741,41.9660672 C20.9624741,34.7069611 20.5760268,25.6979949 19.9522874,23.8016916 C19.2376991,21.6341972 20.1916135,19.3772098 22.1692742,18.5521111 C22.6689437,18.343294 23.1957323,18.2375294 23.7354024,18.2375294 C25.3727183,18.2375294 26.8432517,19.2124612 27.4839405,20.7257072 C28.7497247,23.7216902 29.1260023,29.1455109 29.2182072,33.16863 C29.2270209,33.5374498 29.5287209,33.8310141 29.8961848,33.8310141 L29.9117783,33.8310141 C30.2860219,33.8222004 30.5822981,33.5116866 30.5741624,33.137443 C30.4785676,28.9977118 30.0819507,23.3915151 28.7300633,20.1928168 C27.8798794,18.1812573 25.9191682,16.8815743 23.7354024,16.8815743 Z"></path>
        </g>
    </g>
</svg>