<?xml version="1.0" encoding="UTF-8"?>
<svg width="100px" height="100px" viewBox="0 0 100 100" version="1.1" xmlns="http://www.w3.org/2000/svg" xmlns:xlink="http://www.w3.org/1999/xlink">
    <!-- Generator: Sketch 44 (41411) - http://www.bohemiancoding.com/sketch -->
    <title>icons/circle/hosting-solutions</title>
    <desc>Created with Sketch.</desc>
    <defs></defs>
    <g id="Symbols" stroke="none" stroke-width="1" fill="none" fill-rule="evenodd">
        <g id="services/interior" transform="translate(-782.000000, -48.000000)">
            <g id="hosting" transform="translate(682.000000, 48.000000)">
                <g id="icons/circle/hosting-solutions" transform="translate(100.000000, 0.000000)">
                    <circle id="Oval" fill="#4A6080" cx="50" cy="50" r="50"></circle>
                    <path d="M0.312740588,28.7970166 C9.33941979,19.9023164 21.7312651,14.4133873 35.4051186,14.4133873 C63.019356,14.4133873 85.4051186,36.7991499 85.4051186,64.4133873 C85.4051186,78.1880508 79.8349572,90.6617334 70.8242072,99.7048624 L0.312740588,28.7970166 Z" id="Combined-Shape" fill-opacity="0.25" fill="#000000" style="mix-blend-mode: multiply;" transform="translate(42.858930, 57.059125) rotate(-180.000000) translate(-42.858930, -57.059125) "></path>
                    <path d="M49.8181818,26 C37.5847273,26 28,30.3134545 28,35.8181818 C28,39.2763636 37.7330909,43.4545455 49.8181818,43.4545455 C59.8087273,43.4545455 68.6363636,40.7032727 71.6363636,37.8298182 L71.6363636,35.8181818 C71.6363636,30.3134545 62.0516364,26 49.8181818,26 L49.8181818,26 Z M28,39.8807273 L28,45.6363636 C28,49.0945455 37.7309091,53.2727273 49.8181818,53.2727273 C59.8065455,53.2727273 68.6363636,50.5214545 71.6363636,47.6458182 L71.6363636,40.5505455 C66.976,43.6858182 58.072,45.6363636 49.8181818,45.6363636 C41.1672727,45.6363636 32.0625455,43.4370909 28,39.8807273 Z M28,49.6989091 L28,55.4545455 C28,58.9127273 37.7309091,63.0909091 49.8181818,63.0909091 C59.8065455,63.0909091 68.6363636,60.3396364 71.6363636,57.4661818 L71.6363636,50.3687273 C66.9738182,53.504 58.0698182,55.4545455 49.8181818,55.4545455 C41.1672727,55.4545455 32.0625455,53.2552727 28,49.6989091 Z M28,59.5170909 L28,64.1818182 C28,69.6865455 37.5847273,74 49.8181818,74 C62.0516364,74 71.6363636,69.6865455 71.6363636,64.1818182 L71.6363636,60.1869091 C66.9738182,63.3221818 58.0698182,65.2727273 49.8181818,65.2727273 C41.1672727,65.2727273 32.0625455,63.0734545 28,59.5170909 L28,59.5170909 Z" id="server" fill="#FFFFFF"></path>
                </g>
            </g>
        </g>
    </g>
</svg>