<?xml version="1.0" encoding="UTF-8"?>
<svg width="48px" height="48px" viewBox="0 0 48 48" version="1.1" xmlns="http://www.w3.org/2000/svg" xmlns:xlink="http://www.w3.org/1999/xlink">
    <!-- Generator: Sketch 41.2 (35397) - http://www.bohemiancoding.com/sketch -->
    <title>industry-blue</title>
    <desc>Created with Sketch.</desc>
    <defs>
        <linearGradient x1="100%" y1="0%" x2="0%" y2="100%" id="linearGradient-1">
            <stop stop-color="#FFFFFF" stop-opacity="0.5" offset="0%"></stop>
            <stop stop-color="#000000" stop-opacity="0.5" offset="100%"></stop>
        </linearGradient>
        <path d="M41.5,13.6666667 L30.6666667,13.6666667 L30.6666667,8.66666667 C30.6666667,7.74833333 29.9183333,7 29,7 L19,7 C18.08,7 17.3333333,7.74833333 17.3333333,8.66666667 L17.3333333,13.6666667 L6.5,13.6666667 C5.12166667,13.6666667 4,14.7883333 4,16.1666667 L4,39.5 C4,40.8783333 5.12166667,42 6.5,42 L41.5,42 C42.8766667,42 44,40.8783333 44,39.5 L44,16.1666667 C44,14.7883333 42.8766667,13.6666667 41.5,13.6666667 Z M19,12 L29,12 L29,13.6666667 L19,13.6666667 L19,12 Z M39,35.3333333 L9,35.3333333 L9,33.6666667 L39,33.6666667 L39,35.3333333 Z M39,28.6666667 L9,28.6666667 L9,27 L39,27 L39,28.6666667 Z M39,22 L9,22 L9,20.3333333 L39,20.3333333 L39,22 Z" id="path-2"></path>
    </defs>
    <g id="Icons" stroke="none" stroke-width="1" fill="none" fill-rule="evenodd">
        <g id="industry-blue">
            <g id="Shape">
                <use fill="#4A6080" xlink:href="#path-2"></use>
                <use fill="url(#linearGradient-1)" style="mix-blend-mode: multiply;" xlink:href="#path-2"></use>
            </g>
        </g>
    </g>
</svg>