<?xml version="1.0" encoding="UTF-8"?>
<svg width="100px" height="100px" viewBox="0 0 100 100" version="1.1" xmlns="http://www.w3.org/2000/svg" xmlns:xlink="http://www.w3.org/1999/xlink">
    <!-- Generator: Sketch 44 (41411) - http://www.bohemiancoding.com/sketch -->
    <title>icons/circle/managed-services</title>
    <desc>Created with Sketch.</desc>
    <defs></defs>
    <g id="Symbols" stroke="none" stroke-width="1" fill="none" fill-rule="evenodd">
        <g id="services/interior" transform="translate(-462.000000, -48.000000)">
            <g id="managed-services" transform="translate(362.000000, 48.000000)">
                <g id="icons/circle/managed-services" transform="translate(100.000000, 0.000000)">
                    <circle id="Oval-3" fill="#925097" cx="50" cy="50" r="50"></circle>
                    <path d="M0.312740588,28.7970166 C9.33941979,19.9023164 21.7312651,14.4133873 35.4051186,14.4133873 C63.019356,14.4133873 85.4051186,36.7991499 85.4051186,64.4133873 C85.4051186,78.1880508 79.8349572,90.6617334 70.8242072,99.7048624 L0.312740588,28.7970166 Z" id="Combined-Shape" fill-opacity="0.25" fill="#000000" style="mix-blend-mode: multiply;" transform="translate(42.858930, 57.059125) rotate(-180.000000) translate(-42.858930, -57.059125) "></path>
                    <path d="M70.4770657,27.1367181 C70.1469299,26.9646473 69.7487661,26.9866564 69.4426401,27.2027453 C65.9051846,29.6717611 62.9879844,30.7722139 59.9847487,30.7722139 C56.4092775,30.7722139 53.0619003,29.1615512 50.80097,26.3523954 C50.4208136,25.8822019 49.5884711,25.8822019 49.2083147,26.3543962 C46.9533869,29.1595504 43.6060096,30.7722139 40.0305385,30.7722139 C37.0233012,30.7722139 34.1061009,29.6717611 30.5726471,27.2027453 C30.2665211,26.9866564 29.8703581,26.9626465 29.5382215,27.1367181 C29.2080856,27.3067881 29,27.6489288 29,28.0230828 L29.0360148,57.9253861 C29.0360148,57.9253861 32.2893534,69.0699715 49.7405337,73.9639852 L50.0106448,74 L50.280756,73.9639852 C67.7319363,69.0719724 70.983274,57.9253861 70.983274,57.9253861 L71.017288,28.0230828 C71.017288,27.6489288 70.8092024,27.3067881 70.4770657,27.1367181 L70.4770657,27.1367181 Z M59.0123486,50.9885319 L54.0102905,50.9885319 C53.4580633,50.9885319 53.0098789,51.4387172 53.0098789,51.9889435 L53.0098789,56.9910016 L47.0074091,56.9910016 L47.0074091,51.9889435 C47.0074091,51.4387172 46.5592247,50.9885319 46.0069975,50.9885319 L41.0049394,50.9885319 L41.0049394,44.9860622 L46.0069975,44.9860622 C46.5592247,44.9860622 47.0074091,44.5378778 47.0074091,43.9856506 L47.0074091,38.9835925 L53.0098789,38.9835925 L53.0098789,43.9856506 C53.0098789,44.5378778 53.4580633,44.9860622 54.0102905,44.9860622 L59.0123486,44.9860622 L59.0123486,50.9885319 Z" id="managed" fill="#FFFFFF"></path>
                </g>
            </g>
        </g>
    </g>
</svg>