<?xml version="1.0" encoding="UTF-8"?>
<svg width="48px" height="48px" viewBox="0 0 48 48" version="1.1" xmlns="http://www.w3.org/2000/svg" xmlns:xlink="http://www.w3.org/1999/xlink">
    <!-- Generator: Sketch 41.2 (35397) - http://www.bohemiancoding.com/sketch -->
    <title>managed-purple</title>
    <desc>Created with Sketch.</desc>
    <defs></defs>
    <g id="Icons" stroke="none" stroke-width="1" fill="none" fill-rule="evenodd">
        <g id="managed-purple">
            <g id="managed" transform="translate(6.000000, 4.000000)">
                <path d="M34.5642215,0.947265084 C34.2891083,0.803872752 33.9573051,0.822213632 33.7022001,1.00228772 C30.7543205,3.05980095 28.3233203,3.97684494 25.8206239,3.97684494 C22.8410646,3.97684494 20.0515836,2.63462602 18.167475,0.293662826 C17.850678,-0.0981650583 17.1570593,-0.0981650583 16.8402623,0.295330179 C14.9611558,2.63295866 12.1716747,3.97684494 9.19211543,3.97684494 C6.68608432,3.97684494 4.25508409,3.05980095 1.31053922,1.00228772 C1.05543426,0.822213632 0.725298424,0.802205399 0.448517876,0.947265084 C0.173404681,1.08899006 0,1.37410737 0,1.68590233 L0.0300123486,26.6044884 C0.0300123486,26.6044884 2.74112784,35.8916429 17.2837781,39.9699877 L17.5088707,40 L17.7339633,39.9699877 C32.2766135,35.8933103 34.9860617,26.6044884 34.9860617,26.6044884 L35.0144067,1.68590233 C35.0144067,1.37410737 34.841002,1.08899006 34.5642215,0.947265084 L34.5642215,0.947265084 Z M25.0102905,20.8237766 L20.8419087,20.8237766 C20.3817194,20.8237766 20.0082324,21.198931 20.0082324,21.657453 L20.0082324,25.8258347 L15.0061743,25.8258347 L15.0061743,21.657453 C15.0061743,21.198931 14.6326873,20.8237766 14.1724979,20.8237766 L10.0041162,20.8237766 L10.0041162,15.8217185 L14.1724979,15.8217185 C14.6326873,15.8217185 15.0061743,15.4482315 15.0061743,14.9880422 L15.0061743,10.8196604 L20.0082324,10.8196604 L20.0082324,14.9880422 C20.0082324,15.4482315 20.3817194,15.8217185 20.8419087,15.8217185 L25.0102905,15.8217185 L25.0102905,20.8237766 Z" fill="#925097"></path>
                <path d="M0.00014483242,1.80615347 L0,1.68590233 C0,1.37410737 0.173404681,1.08899006 0.448517876,0.947265084 C0.725298424,0.802205399 1.05543426,0.822213632 1.31053922,1.00228772 C4.25508409,3.05980095 6.68608432,3.97684494 9.19211543,3.97684494 C12.1716747,3.97684494 14.9611558,2.63295866 16.8402623,0.295330179 C17.1570593,-0.0981650583 17.850678,-0.0981650583 18.167475,0.293662826 C20.0515836,2.63462602 22.8410646,3.97684494 25.8206239,3.97684494 C28.3233203,3.97684494 30.7543205,3.05980095 33.7022001,1.00228772 C33.9573051,0.822213632 34.2891083,0.803872752 34.5642215,0.947265084 L34.5642215,0.947265084 C34.841002,1.08899006 35.0144067,1.37410737 35.0144067,1.68590233 L34.9860617,26.6044884 C34.9860617,26.6044884 34.1624516,29.4280773 30.9861352,32.6449645 L20.0082324,21.7192053 L20.0082324,21.657453 C20.0082324,21.198931 20.3817194,20.8237766 20.8419087,20.8237766 L25.0102905,20.8237766 L25.0102905,15.8217185 L20.8419087,15.8217185 C20.3817194,15.8217185 20.0082324,15.4482315 20.0082324,14.9880422 L20.0082324,10.8196604 L15.0061743,10.8196604 L15.0061743,14.9880422 C15.0061743,15.4482315 14.6326873,15.8217185 14.1724979,15.8217185 L14.0825997,15.8217185 L0.00014483242,1.80615347 Z" id="shade" fill-opacity="0.33" fill="#000000" style="mix-blend-mode: multiply;"></path>
            </g>
        </g>
    </g>
</svg>