<?xml version="1.0" encoding="UTF-8"?>
<svg width="24px" height="31px" viewBox="0 0 24 31" version="1.1" xmlns="http://www.w3.org/2000/svg" xmlns:xlink="http://www.w3.org/1999/xlink">
    <!-- Generator: Sketch 44 (41411) - http://www.bohemiancoding.com/sketch -->
    <title>pdf</title>
    <desc>Created with Sketch.</desc>
    <defs></defs>
    <g id="Contact" stroke="none" stroke-width="1" fill="none" fill-rule="evenodd">
        <g id="Client-Support" transform="translate(-58.000000, -1609.000000)">
            <g id="helpful-links" transform="translate(42.000000, 1548.000000)">
                <g id="pdf" transform="translate(16.000000, 61.000000)">
                    <g id="Capa_1">
                        <g>
                            <g id="Group">
                                <path d="M16.9009091,0 L1.07072727,0 C0.63,0 0.272727273,0.362589286 0.272727273,1.06617857 L0.272727273,30.4464286 C0.272727273,30.6374107 0.63,31 1.07072727,31 L22.9292727,31 C23.37,31 23.7272727,30.6374107 23.7272727,30.4464286 L23.7272727,7.18425 C23.7272727,6.79896429 23.6765455,6.67496429 23.5870909,6.583625 L17.2401818,0.142267857 C17.1501818,0.0514821429 17.028,0 16.9009091,0 L16.9009091,0 Z" id="Shape" fill="#E9E9E0"></path>
                                <polygon id="Shape" fill="#D9D7CA" points="17.1818182 0.0835892857 17.1818182 6.64285714 23.6449091 6.64285714"></polygon>
                                <path d="M7.37127273,18.4472143 L7.37127273,18.4472143 C7.18145455,18.4472143 6.99927273,18.3846607 6.84381818,18.26675 C6.276,17.8344107 6.19963636,17.3533571 6.23563636,17.0256429 C6.33490909,16.1244286 7.43290909,15.1811429 9.50018182,14.2201429 C10.3205455,12.3955714 11.1010909,10.1475179 11.5663636,8.26925 C11.022,7.06689286 10.4929091,5.50692857 10.8785455,4.591875 C11.0138182,4.27135714 11.1823636,4.02557143 11.4970909,3.91928571 C11.6214545,3.87721429 11.9356364,3.82407143 12.0512727,3.82407143 C12.3261818,3.82407143 12.5678182,4.18333929 12.7390909,4.40476786 C12.9,4.61291071 13.2649091,5.05410714 12.5356364,8.17016071 C13.2709091,9.71130357 14.3127273,11.2812321 15.3109091,12.3562679 C16.026,12.2250714 16.6412727,12.1580893 17.1425455,12.1580893 C17.9967273,12.1580893 18.5143636,12.3601429 18.7254545,12.7764286 C18.9,13.12075 18.8285455,13.5231964 18.5127273,13.9721429 C18.2089091,14.403375 17.79,14.6314464 17.3018182,14.6314464 C16.6385455,14.6314464 15.8661818,14.2063036 15.0049091,13.3665357 C13.4574545,13.6948036 11.6503636,14.2804821 10.1896364,14.9287143 C9.73363636,15.91075 9.29672727,16.7018036 8.88981818,17.2819464 C8.33072727,18.0763214 7.84854545,18.4472143 7.37127273,18.4472143 L7.37127273,18.4472143 Z M8.82327273,15.6096071 C7.65763636,16.2744464 7.18254545,16.8208214 7.14818182,17.1286071 C7.14272727,17.1795357 7.128,17.3135 7.38327273,17.5116786 C7.46454545,17.4856607 7.93909091,17.2658929 8.82327273,15.6096071 L8.82327273,15.6096071 Z M16.2616364,13.1506429 C16.7061818,13.4977321 16.8147273,13.6732143 17.1054545,13.6732143 C17.2330909,13.6732143 17.5969091,13.6676786 17.7654545,13.4290893 C17.8467273,13.3133929 17.8783636,13.2392143 17.8909091,13.1993571 C17.8238182,13.163375 17.7349091,13.0903036 17.25,13.0903036 C16.9745455,13.0908571 16.6281818,13.1030357 16.2616364,13.1506429 L16.2616364,13.1506429 Z M12.1870909,9.50703571 C11.7970909,10.8765714 11.2821818,12.3551607 10.7285455,13.69425 C11.8685455,13.2453036 13.1078182,12.853375 14.2718182,12.5760357 C13.5354545,11.7080357 12.7996364,10.6241429 12.1870909,9.50703571 L12.1870909,9.50703571 Z M11.856,4.82271429 C11.8025455,4.84098214 11.1305455,5.79533929 11.9083636,6.603 C12.426,5.43219643 11.8794545,4.81496429 11.856,4.82271429 L11.856,4.82271429 Z" id="Shape" fill="#CC4B4C"></path>
                                <path d="M22.9292727,31 L1.07072727,31 C0.63,31 0.272727273,30.6374107 0.272727273,30.190125 L0.272727273,21.5892857 L23.7272727,21.5892857 L23.7272727,30.190125 C23.7272727,30.6374107 23.37,31 22.9292727,31 L22.9292727,31 Z" id="Shape" fill="#CC4B4C"></path>
                                <g transform="translate(4.909091, 23.250000)" id="Shape" fill="#FFFFFF">
                                    <path d="M1.30090909,6.08928571 L0.405818182,6.08928571 L0.405818182,0.5115 L1.98654545,0.5115 C2.22,0.5115 2.45127273,0.549142857 2.67981818,0.624982143 C2.90836364,0.700821429 3.11345455,0.814303571 3.29509091,0.965428571 C3.47672727,1.11655357 3.62345455,1.29978571 3.73527273,1.51401786 C3.84709091,1.72825 3.90327273,1.96905357 3.90327273,2.23698214 C3.90327273,2.51985714 3.85581818,2.77560714 3.76145455,3.00533929 C3.66709091,3.23507143 3.53509091,3.42826786 3.366,3.584375 C3.19690909,3.74048214 2.99290909,3.86171429 2.75454545,3.94751786 C2.51618182,4.03332143 2.25218182,4.07594643 1.96418182,4.07594643 L1.30036364,4.07594643 L1.30036364,6.08928571 L1.30090909,6.08928571 Z M1.30090909,1.20014286 L1.30090909,3.41 L2.12127273,3.41 C2.23036364,3.41 2.33836364,3.39117857 2.44581818,3.35298214 C2.55272727,3.31533929 2.65090909,3.25333929 2.74036364,3.16753571 C2.82981818,3.08173214 2.90181818,2.96216071 2.95636364,2.80826786 C3.01090909,2.654375 3.03818182,2.46394643 3.03818182,2.23698214 C3.03818182,2.14619643 3.02563636,2.04101786 3.00109091,1.92310714 C2.976,1.80464286 2.92527273,1.69116071 2.84836364,1.58266071 C2.77090909,1.47416071 2.66290909,1.383375 2.52381818,1.31030357 C2.38472727,1.23723214 2.20036364,1.20069643 1.97181818,1.20069643 L1.30090909,1.20069643 L1.30090909,1.20014286 Z"></path>
                                    <path d="M9.39218182,3.14539286 C9.39218182,3.60430357 9.34363636,3.99678571 9.24654545,4.32228571 C9.14945455,4.64778571 9.02672727,4.92014286 8.87727273,5.13991071 C8.72781818,5.35967857 8.56036364,5.53239286 8.37381818,5.65860714 C8.18727273,5.78482143 8.00727273,5.87892857 7.83327273,5.94258929 C7.65927273,6.00569643 7.5,6.04610714 7.356,6.06382143 C7.212,6.08042857 7.10509091,6.08928571 7.03527273,6.08928571 L4.95490909,6.08928571 L4.95490909,0.5115 L6.61036364,0.5115 C7.07290909,0.5115 7.47927273,0.586232143 7.82945455,0.734589286 C8.17963636,0.882946429 8.47090909,1.08167857 8.70218182,1.32857143 C8.93345455,1.57546429 9.10581818,1.85723214 9.22036364,2.17221429 C9.33490909,2.48775 9.39218182,2.81214286 9.39218182,3.14539286 L9.39218182,3.14539286 Z M6.73745455,5.42333929 C7.344,5.42333929 7.78145455,5.22682143 8.04981818,4.83323214 C8.31818182,4.43964286 8.45236364,3.86946429 8.45236364,3.12269643 C8.45236364,2.89075 8.42509091,2.66101786 8.37054545,2.43405357 C8.31545455,2.20708929 8.21018182,2.00171429 8.05363636,1.817375 C7.89709091,1.63303571 7.68436364,1.484125 7.416,1.37064286 C7.14763636,1.25716071 6.79963636,1.20014286 6.372,1.20014286 L5.85,1.20014286 L5.85,5.42333929 L6.73745455,5.42333929 L6.73745455,5.42333929 Z"></path>
                                    <polygon points="11.5996364 1.20014286 11.5996364 2.95607143 13.8965455 2.95607143 13.8965455 3.576625 11.5996364 3.576625 11.5996364 6.08928571 10.6898182 6.08928571 10.6898182 0.5115 14.1272727 0.5115 14.1272727 1.20014286"></polygon>
                                </g>
                            </g>
                        </g>
                    </g>
                </g>
            </g>
        </g>
    </g>
</svg>