<?xml version="1.0" encoding="UTF-8"?>
<svg width="48px" height="48px" viewBox="0 0 48 48" version="1.1" xmlns="http://www.w3.org/2000/svg" xmlns:xlink="http://www.w3.org/1999/xlink">
    <!-- Generator: Sketch 41.2 (35397) - http://www.bohemiancoding.com/sketch -->
    <title>server-blue</title>
    <desc>Created with Sketch.</desc>
    <defs></defs>
    <g id="Icons" stroke="none" stroke-width="1" fill="none" fill-rule="evenodd">
        <g id="server-blue">
            <g id="server" transform="translate(6.000000, 4.000000)">
                <path d="M18.1818182,0 C7.98727273,0 0,3.59454545 0,8.18181818 C0,11.0636364 8.11090909,14.5454545 18.1818182,14.5454545 C26.5072727,14.5454545 33.8636364,12.2527273 36.3636364,9.85818182 L36.3636364,8.18181818 C36.3636364,3.59454545 28.3763636,1.61486985e-15 18.1818182,1.61486985e-15 L18.1818182,0 Z M0,11.5672727 L0,16.3636364 C0,19.2454545 8.10909091,22.7272727 18.1818182,22.7272727 C26.5054545,22.7272727 33.8636364,20.4345455 36.3636364,18.0381818 L36.3636364,12.1254545 C32.48,14.7381818 25.06,16.3636364 18.1818182,16.3636364 C10.9727273,16.3636364 3.38545455,14.5309091 0,11.5672727 Z M0,19.7490909 L0,24.5454545 C0,27.4272727 8.10909091,30.9090909 18.1818182,30.9090909 C26.5054545,30.9090909 33.8636364,28.6163636 36.3636364,26.2218182 L36.3636364,20.3072727 C32.4781818,22.92 25.0581818,24.5454545 18.1818182,24.5454545 C10.9727273,24.5454545 3.38545455,22.7127273 0,19.7490909 Z M0,27.9309091 L0,31.8181818 C0,36.4054545 7.98727273,40 18.1818182,40 C28.3763636,40 36.3636364,36.4054545 36.3636364,31.8181818 L36.3636364,28.4890909 C32.4781818,31.1018182 25.0581818,32.7272727 18.1818182,32.7272727 C10.9727273,32.7272727 3.38545455,30.8945455 0,27.9309091 L0,27.9309091 Z" fill="#4A6080"></path>
                <path d="M2.2787448,4.15649655 C5.35638819,1.65691863 11.260378,0 18.1818182,0 L18.1818182,1.61486985e-15 C28.3763636,1.61486985e-15 36.3636364,3.59454545 36.3636364,8.18181818 L36.3636364,9.85818182 C33.8636364,12.2527273 26.5072727,14.5454545 18.1818182,14.5454545 C16.1714236,14.5454545 14.2391345,14.4067051 12.4338811,14.1616768 L2.2787448,4.15649655 Z M21.0371469,22.6379024 C28.1492935,22.1932489 34.154025,20.1561947 36.3636364,18.0381818 L36.3636364,12.1254545 C32.48,14.7381818 25.06,16.3636364 18.1818182,16.3636364 C16.9621641,16.3636364 15.7316854,16.3111785 14.5125606,16.2096615 L21.0371469,22.6379024 Z M28.2714222,29.7653525 C32.0373854,28.8729989 34.9629839,27.5633885 36.3636364,26.2218182 L36.3636364,20.3072727 C33.3304132,22.3469273 28.1431258,23.7849064 22.7420086,24.3175891 L28.2714222,29.7653525 Z M34.2775334,35.6827744 C35.6127312,34.5379054 36.3636364,33.2247081 36.3636364,31.8181818 L36.3636364,28.4890909 C34.7052125,29.6042781 32.4028552,30.5396012 29.7736875,31.2454346 L34.2775334,35.6827744 Z" id="shade" fill-opacity="0.33" fill="#000000" style="mix-blend-mode: multiply;"></path>
            </g>
        </g>
    </g>
</svg>