<?xml version="1.0" encoding="UTF-8"?>
<svg width="48px" height="48px" viewBox="0 0 48 48" version="1.1" xmlns="http://www.w3.org/2000/svg" xmlns:xlink="http://www.w3.org/1999/xlink">
    <!-- Generator: Sketch 41.2 (35397) - http://www.bohemiancoding.com/sketch -->
    <title>testimonial-teal</title>
    <desc>Created with Sketch.</desc>
    <defs>
        <linearGradient x1="0%" y1="100%" x2="100%" y2="0%" id="linearGradient-1">
            <stop stop-color="#4A888D" offset="0%"></stop>
            <stop stop-color="#71B4B9" offset="100%"></stop>
        </linearGradient>
    </defs>
    <g id="Icons" stroke="none" stroke-width="1" fill="none" fill-rule="evenodd">
        <g id="testimonial-teal" fill="url(#linearGradient-1)">
            <path d="M24,5 C12.9716667,5 4,12.39 4,21.4716667 C4,25.7633333 5.96166667,29.7833333 9.54166667,32.8583333 L5.525,40.8766667 C5.36666667,41.1933333 5.425,41.5766667 5.67333333,41.8316667 C5.83333333,41.9966667 6.05,42.0833333 6.27,42.0833333 L6.62166667,42.005 L17.35,37.0116667 C19.48,37.63 21.7166667,37.9433333 24,37.9433333 C35.0283333,37.9433333 44,30.5533333 44,21.4716667 C44,12.39 35.0283333,5 24,5 L24,5 Z M29.46,13.3316667 C27.875,13.3316667 26.01,14.1516667 24.8333333,16.305 C23.6566667,14.1516667 21.79,13.3316667 20.2066667,13.3316667 C17.565,13.3316667 14.8333333,15.5366667 14.8333333,19.2266667 C14.8333333,24.53 23.955,31.225 24.3433333,31.5066667 C24.4883333,31.6133333 24.6616667,31.6666667 24.8333333,31.6666667 C25.005,31.6666667 25.1766667,31.6133333 25.3233333,31.5066667 C25.7116667,31.225 34.8333333,24.53 34.8333333,19.2266667 C34.8333333,15.5366667 32.1016667,13.3316667 29.46,13.3316667 Z M24.8333333,29.7933333 C22.1166667,27.715 16.5,22.7016667 16.5,19.2266667 C16.5,16.58 18.3833333,14.9983333 20.2066667,14.9983333 C22.0166667,14.9983333 23.4433333,16.4383333 24.0233333,18.8516667 C24.2033333,19.6016667 25.4633333,19.6016667 25.645,18.8516667 C26.225,16.44 27.6516667,14.9983333 29.4616667,14.9983333 C31.2833333,14.9983333 33.1683333,16.58 33.1683333,19.2266667 C33.1666667,22.7016667 27.55,27.715 24.8333333,29.7933333 Z" id="Shape"></path>
        </g>
    </g>
</svg>