<?xml version="1.0" encoding="UTF-8"?>
<svg width="48px" height="48px" viewBox="0 0 48 48" version="1.1" xmlns="http://www.w3.org/2000/svg" xmlns:xlink="http://www.w3.org/1999/xlink">
    <!-- Generator: Sketch 41.2 (35397) - http://www.bohemiancoding.com/sketch -->
    <title>window-teal</title>
    <desc>Created with Sketch.</desc>
    <defs></defs>
    <g id="Icons" stroke="none" stroke-width="1" fill="none" fill-rule="evenodd">
        <g id="window-teal">
            <g id="window" transform="translate(4.000000, 8.000000)">
                <path d="M35.8333333,0 L4.16666667,0 C1.86833333,0 0,1.86833333 0,4.16666667 L0,8.33333333 L40,8.33333333 L40,4.16666667 C40,1.86833333 38.13,0 35.8333333,0 Z M6.66666667,6.66666667 C5.74666667,6.66666667 5,5.92 5,5 C5,4.08 5.74666667,3.33333333 6.66666667,3.33333333 C7.585,3.33333333 8.33333333,4.08 8.33333333,5 C8.33333333,5.92 7.585,6.66666667 6.66666667,6.66666667 Z M11.6666667,6.66666667 C10.7466667,6.66666667 10,5.92 10,5 C10,4.08 10.7466667,3.33333333 11.6666667,3.33333333 C12.585,3.33333333 13.3333333,4.08 13.3333333,5 C13.3333333,5.92 12.585,6.66666667 11.6666667,6.66666667 Z M16.6666667,6.66666667 C15.7466667,6.66666667 15,5.92 15,5 C15,4.08 15.7466667,3.33333333 16.6666667,3.33333333 C17.585,3.33333333 18.3333333,4.08 18.3333333,5 C18.3333333,5.92 17.585,6.66666667 16.6666667,6.66666667 Z M0,27.5 C0,29.7983333 1.86833333,31.6666667 4.16666667,31.6666667 L35.8333333,31.6666667 C38.13,31.6666667 40,29.7983333 40,27.5 L40,10 L0,10 L0,27.5 Z" fill="#4A888D"></path>
                <path d="M4.10835102,0.000401349595 C4.12775813,0.000134074657 4.14719697,0 4.16666667,0 L35.8333333,0 C38.13,0 40,1.86833333 40,4.16666667 L40,8.33333333 L12.4755908,8.33333333 L4.1083475,0.000398023331 Z M35.9043914,31.6660698 C38.1684468,31.6280087 40,29.774584 40,27.5 L40,10 L14.1491194,10 L35.9043966,31.6660746 Z M11.6666667,6.66666667 C10.7466667,6.66666667 10,5.92 10,5 C10,4.08 10.7466667,3.33333333 11.6666667,3.33333333 C12.585,3.33333333 13.3333333,4.08 13.3333333,5 C13.3333333,5.92 12.585,6.66666667 11.6666667,6.66666667 Z M16.6666667,6.66666667 C15.7466667,6.66666667 15,5.92 15,5 C15,4.08 15.7466667,3.33333333 16.6666667,3.33333333 C17.585,3.33333333 18.3333333,4.08 18.3333333,5 C18.3333333,5.92 17.585,6.66666667 16.6666667,6.66666667 Z" id="shade" fill-opacity="0.33" fill="#000000" style="mix-blend-mode: multiply;"></path>
            </g>
        </g>
    </g>
</svg>